HIERARCHY
ROOT Hips
{
	OFFSET 0.000000 0.000000 0.000000
	CHANNELS 6 Xposition Yposition Zposition Zrotation Yrotation Xrotation 
	JOINT LowerBack
	{
		OFFSET 0.000000 0.000000 0.000000
		CHANNELS 3 Zrotation Yrotation Xrotation
		JOINT Spine
		{
			OFFSET 0.028270 2.035590 -0.193380
			CHANNELS 3 Zrotation Yrotation Xrotation
			JOINT Spine1
			{
				OFFSET 0.056720 2.048850 -0.042750
				CHANNELS 3 Zrotation Yrotation Xrotation
				JOINT Neck
				{
					OFFSET 0.000000 0.000000 0.000000
					CHANNELS 3 Zrotation Yrotation Xrotation
					JOINT Neck1
					{
						OFFSET -0.054170 1.746240 0.172020
						CHANNELS 3 Zrotation Yrotation Xrotation
						JOINT Head
						{
							OFFSET 0.104070 1.761360 -0.123970
							CHANNELS 3 Zrotation Yrotation Xrotation
							End Site
							{
								OFFSET 0.000000 0.000000 0.000000
							}
						}
					}
				}
				JOINT LeftShoulder
				{
					OFFSET 0.000000 0.000000 0.000000
					CHANNELS 3 Zrotation Yrotation Xrotation
					JOINT LeftArm
					{
						OFFSET 3.362410 1.200890 -0.311210
						CHANNELS 3 Zrotation Yrotation Xrotation
						JOINT LeftForeArm
						{
							OFFSET 4.983000 -0.000000 -0.000000
							CHANNELS 3 Zrotation Yrotation Xrotation
							JOINT LeftHand
							{
								OFFSET 3.483560 -0.000000 -0.000000
								CHANNELS 3 Zrotation Yrotation Xrotation
								JOINT LeftFingerBase
								{
									OFFSET 0.000000 0.000000 0.000000
									CHANNELS 3 Zrotation Yrotation Xrotation
									JOINT LeftHandIndex1
									{
										OFFSET 0.715260 -0.000000 -0.000000
										CHANNELS 3 Zrotation Yrotation Xrotation
										End Site
										{
											OFFSET 0.000000 0.000000 0.000000
										}
									}
								}
								JOINT LThumb
								{
									OFFSET 0.000000 0.000000 0.000000
									CHANNELS 3 Zrotation Yrotation Xrotation
									End Site
									{
										OFFSET 0.000000 0.000000 0.000000
									}
								}
							}
						}
					}
				}
				JOINT RightShoulder
				{
					OFFSET 0.000000 0.000000 0.000000
					CHANNELS 3 Zrotation Yrotation Xrotation
					JOINT RightArm
					{
						OFFSET -3.136600 1.374050 -0.404650
						CHANNELS 3 Zrotation Yrotation Xrotation
						JOINT RightForeArm
						{
							OFFSET -5.241900 -0.000000 -0.000000
							CHANNELS 3 Zrotation Yrotation Xrotation
							JOINT RightHand
							{
								OFFSET -3.444170 -0.000000 -0.000000
								CHANNELS 3 Zrotation Yrotation Xrotation
								JOINT RightFingerBase
								{
									OFFSET 0.000000 0.000000 0.000000
									CHANNELS 3 Zrotation Yrotation Xrotation
									JOINT RightHandIndex1
									{
										OFFSET -0.622530 -0.000000 -0.000000
										CHANNELS 3 Zrotation Yrotation Xrotation
										End Site
										{
											OFFSET 0.000000 0.000000 0.000000
										}
									}
								}
								JOINT RThumb
								{
									OFFSET 0.000000 0.000000 0.000000
									CHANNELS 3 Zrotation Yrotation Xrotation
									End Site
									{
										OFFSET 0.000000 0.000000 0.000000
									}
								}
							}
						}
					}
				}
			}
		}
	}
}
}
MOTION
Frames: 13
Frame Time: 0.008333
5.052014 16.260678 0.236769 -5.303134 86.880449 20.804395 1.290608 -2.572769 11.962631 0.273721 -2.520067 -0.661630 -2.542595 -2.446206 -1.105279 0.928871 -10.636224 -3.608644 -1.497558 -0.147387 0.708608 0.000000 0.000000 0.000000 9.267343 6.398503 -1.351730 -64.190233 -13.899566 4.135558 -178.374284 -62.267387 179.947412 5.418671 1.562483 0.052090 -0.198510 0.533309 -0.000000 0.000000 0.000000 0.000000 0.000000 0.000000 0.000000 -6.171875 -7.204867 0.021280 70.633768 -32.509369 22.305291 -179.856505 84.939155 179.940489 -15.172550 9.862263 -1.377698 0.166692 -0.352952 -0.000000 0.000000 0.000000 0.000000 0.000000 0.000000 0.000000 
5.248129 16.369743 0.265905 -6.921890 86.592134 19.498303 1.590209 -2.627595 11.649017 0.360499 -2.596385 -0.733946 -2.440296 -2.531912 -1.080584 0.780339 -10.942746 -3.792478 -1.466577 -0.143434 0.666611 0.000000 0.000000 0.000000 9.514955 6.556469 -1.335122 -63.669721 -12.973008 3.590616 -178.328598 -61.048154 179.949089 5.249466 1.406200 0.042782 -0.193727 0.539062 -0.000000 0.000000 0.000000 0.000000 0.000000 0.000000 0.000000 -6.485745 -7.460094 -0.038327 70.197004 -33.127954 22.706729 -179.853735 84.214539 179.941227 -15.122062 9.835914 -1.369760 0.169764 -0.353251 -0.000000 0.000000 0.000000 0.000000 0.000000 0.000000 0.000000 
5.445102 16.479751 0.297261 -8.355009 86.330177 18.387136 1.887231 -2.683679 11.364269 0.443683 -2.672433 -0.804599 -2.352972 -2.616172 -1.071831 0.671175 -11.240025 -3.985930 -1.447874 -0.140102 0.621159 0.000000 0.000000 0.000000 9.770263 6.664487 -1.306813 -63.225417 -11.864113 3.088807 -178.291412 -59.845188 179.950663 5.098957 1.274111 0.035270 -0.188864 0.543201 -0.000000 0.000000 0.000000 0.000000 0.000000 0.000000 0.000000 -6.705982 -7.696133 -0.096091 69.779895 -33.691835 23.091714 -179.851048 83.501736 179.941769 -15.105001 9.834467 -1.368413 0.173577 -0.354384 -0.000000 0.000000 0.000000 0.000000 0.000000 0.000000 0.000000 
5.642681 16.589867 0.331340 -9.448809 86.100587 17.619329 2.166889 -2.745658 11.111588 0.519822 -2.752566 -0.871599 -2.283069 -2.703016 -1.075358 0.604240 -11.530083 -4.186963 -1.440899 -0.137391 0.572695 0.000000 0.000000 0.000000 10.029907 6.728530 -1.267348 -62.844505 -10.592139 2.642539 -178.263823 -58.670765 179.952089 4.971753 1.160761 0.029259 -0.184110 0.545773 -0.000000 0.000000 0.000000 0.000000 0.000000 0.000000 0.000000 -6.830595 -7.917712 -0.153123 69.396902 -34.190011 23.455581 -179.848562 82.805936 179.942161 -15.103599 9.855524 -1.371766 0.177806 -0.356341 -0.000000 0.000000 0.000000 0.000000 0.000000 0.000000 0.000000 
5.840735 16.699213 0.368171 -10.267234 85.904662 17.121739 2.429907 -2.815459 10.894171 0.589185 -2.838690 -0.933058 -2.230835 -2.794288 -1.086570 0.573072 -11.819420 -4.392714 -1.442847 -0.135155 0.521922 0.000000 0.000000 0.000000 10.276098 6.751981 -1.217560 -62.510477 -9.176558 2.258128 -178.246735 -57.532290 179.953319 4.872569 1.065736 0.024448 -0.179648 0.546666 -0.000000 0.000000 0.000000 0.000000 0.000000 0.000000 0.000000 -6.878578 -8.133194 -0.208160 69.066057 -34.603181 23.802281 -179.846521 82.145887 179.942447 -15.108574 9.898283 -1.378716 0.182235 -0.359012 -0.000000 0.000000 0.000000 0.000000 0.000000 0.000000 0.000000 
6.039355 16.806643 0.408137 -10.545931 85.750338 17.159311 2.653821 -2.897367 10.703713 0.647285 -2.934989 -0.988619 -2.196908 -2.894036 -1.098775 0.582222 -12.102602 -4.601912 -1.452251 -0.133326 0.469285 0.000000 0.000000 0.000000 10.510059 6.764283 -1.159428 -62.218294 -7.666436 1.965190 -178.240303 -56.461282 179.954367 4.799523 0.981327 0.020437 -0.175555 0.546169 -0.000000 0.000000 0.000000 0.000000 0.000000 0.000000 0.000000 -6.845771 -8.342453 -0.264733 68.800265 -34.937165 24.115977 -179.845105 81.525638 179.942708 -15.094831 9.951733 -1.385367 0.186375 -0.362185 -0.000000 0.000000 0.000000 0.000000 0.000000 0.000000 0.000000 
6.238502 16.911091 0.450602 -10.560601 85.633210 17.447141 2.858818 -2.989335 10.540846 0.699200 -3.039767 -1.037296 -2.177889 -3.000868 -1.107261 0.615139 -12.389311 -4.810778 -1.463532 -0.131560 0.415818 0.000000 0.000000 0.000000 10.705632 6.764870 -1.095075 -61.954647 -6.079625 1.762380 -178.245056 -55.462486 179.955244 4.751686 0.909409 0.017225 -0.171761 0.544163 -0.000000 0.000000 0.000000 0.000000 0.000000 0.000000 0.000000 -6.774832 -8.555892 -0.318519 68.618189 -35.170134 24.408135 -179.844658 80.976224 179.942982 -15.062979 10.018268 -1.392221 0.190118 -0.365666 -0.000000 0.000000 0.000000 0.000000 0.000000 0.000000 0.000000 
6.438318 17.011286 0.495346 -10.248249 85.555904 18.048715 3.041665 -3.091299 10.396675 0.745026 -3.153170 -1.079599 -2.171176 -3.115110 -1.106881 0.667964 -12.677935 -5.017860 -1.473654 -0.129669 0.362079 0.000000 0.000000 0.000000 10.860877 6.774254 -1.027727 -61.720182 -4.459637 1.668078 -178.260391 -54.557439 179.956011 4.721449 0.845093 0.014511 -0.168072 0.540956 -0.000000 0.000000 0.000000 0.000000 0.000000 0.000000 0.000000 -6.679039 -8.775427 -0.369971 68.527154 -35.308864 24.671606 -179.845372 80.506848 179.943325 -14.999459 10.093266 -1.397181 0.193133 -0.369261 -0.000000 0.000000 0.000000 0.000000 0.000000 0.000000 0.000000 
6.638844 17.105964 0.541867 -9.630089 85.518707 18.942760 3.206938 -3.201259 10.264310 0.786528 -3.273460 -1.116161 -2.173468 -3.235282 -1.094268 0.734779 -12.968719 -5.221677 -1.479484 -0.127447 0.308625 0.000000 0.000000 0.000000 10.973011 6.804693 -0.960519 -61.516833 -2.842287 1.691730 -178.285256 -53.763973 179.956762 4.698534 0.785156 0.011994 -0.164163 0.536827 -0.000000 0.000000 0.000000 0.000000 0.000000 0.000000 0.000000 -6.575308 -9.003348 -0.418016 68.529813 -35.360678 24.902145 -179.847427 80.126517 179.943777 -14.897488 10.175661 -1.399249 0.195206 -0.372824 -0.000000 0.000000 0.000000 0.000000 0.000000 0.000000 0.000000 
6.839989 17.193926 0.589555 -8.780269 85.519961 20.054270 3.363688 -3.315580 10.139110 0.826320 -3.397292 -1.147943 -2.181078 -3.358349 -1.068936 0.808486 -13.262056 -5.420458 -1.478542 -0.124742 0.256103 0.000000 0.000000 0.000000 11.043812 6.856396 -0.896511 -61.349494 -1.249549 1.831592 -178.318780 -53.086742 179.957584 4.671307 0.724374 0.009572 -0.159568 0.532153 -0.000000 0.000000 0.000000 0.000000 0.000000 0.000000 0.000000 -6.481242 -9.239909 -0.460140 68.625148 -35.335215 25.097174 -179.850949 79.840181 179.944350 -14.755769 10.268890 -1.398826 0.196233 -0.376320 -0.000000 0.000000 0.000000 0.000000 0.000000 0.000000 0.000000 
7.041732 17.274112 0.637947 -7.496683 85.563820 21.587792 3.503475 -3.432818 10.016189 0.862883 -3.523249 -1.175154 -2.192734 -3.482970 -1.029003 0.893671 -13.553040 -5.616263 -1.471803 -0.121592 0.204052 0.000000 0.000000 0.000000 11.084447 6.952952 -0.837725 -61.225884 0.262158 2.102693 -178.356700 -52.546393 179.958570 4.626461 0.665980 0.007243 -0.154091 0.527164 -0.000000 0.000000 0.000000 0.000000 0.000000 0.000000 0.000000 -6.383224 -9.483816 -0.498857 68.795967 -35.256488 25.243042 -179.855780 79.631962 179.945049 -14.567669 10.368578 -1.394510 0.196052 -0.379713 -0.000000 0.000000 0.000000 0.000000 0.000000 0.000000 0.000000 
7.243615 17.345462 0.686371 -5.933110 85.643760 23.386090 3.640975 -3.547710 9.898556 0.899461 -3.646242 -1.198668 -2.205783 -3.604356 -0.979896 0.982728 -13.842186 -5.806225 -1.458241 -0.117964 0.153356 0.000000 0.000000 0.000000 11.100010 7.067851 -0.785475 -61.148912 1.706829 2.479353 -178.399286 -52.127233 179.959782 4.555130 0.600120 0.004605 -0.147198 0.522312 -0.000000 0.000000 0.000000 0.000000 0.000000 0.000000 0.000000 -6.297476 -9.730808 -0.528933 69.037405 -35.133215 25.340680 -179.861955 79.501570 179.945842 -14.344003 10.484588 -1.388404 0.194839 -0.383154 -0.000000 0.000000 0.000000 0.000000 0.000000 0.000000 0.000000 
7.445297 17.407233 0.734467 -3.924994 85.759243 25.611505 3.771086 -3.658337 9.790146 0.934611 -3.764180 -1.218054 -2.220583 -3.720396 -0.924593 1.080051 -14.123717 -5.991167 -1.440504 -0.114040 0.103784 0.000000 0.000000 0.000000 11.102354 7.202888 -0.739766 -61.121997 3.059811 2.956502 -178.443441 -51.830275 179.961253 4.450197 0.527017 0.001758 -0.138807 0.517817 -0.000000 0.000000 0.000000 0.000000 0.000000 0.000000 0.000000 -6.207849 -9.975203 -0.551042 69.331829 -34.985095 25.378558 -179.869167 79.428678 179.946685 -14.089964 10.616405 -1.380805 0.192697 -0.386758 -0.000000 0.000000 0.000000 0.000000 0.000000 0.000000 0.000000 
